<svg width="649" height="258" viewBox="0 0 649 258" fill="none" xmlns="http://www.w3.org/2000/svg">
<path d="M14.4549 81.5972C13.5955 79.8783 18.8715 76.8225 21.617 75.5095C23.909 37.1214 48.3551 17.9749 59.9335 13.558C64.5598 7.85567 71.6401 4.29299 79.9872 2.45624C99.4233 -1.82058 124.144 3.57368 129.405 15.3485C157.194 26.5212 164.857 60.3499 165.215 75.8676L182.762 85.5363C184.792 86.4913 187.633 89.7619 182.762 95.205C176.675 102.009 124.101 108.216 113 107.5C104.119 106.927 68.2892 100.099 56.3525 96.9956C42.8642 94.9663 15.601 90.8362 14.4549 90.5498C13.0223 90.1917 15.5292 83.7458 14.4549 81.5972Z" fill="#F98C00"/>
<path d="M59.9335 13.558C48.3551 17.9749 23.909 37.1214 21.617 75.5095C18.8715 76.8225 13.5955 79.8783 14.4549 81.5972C15.5292 83.7458 13.0223 90.1916 14.4549 90.5498C15.601 90.8362 42.8642 94.9663 56.3525 96.9956C68.2892 100.099 104.119 106.927 113 107.5C124.101 108.216 176.675 102.009 182.762 95.205C187.633 89.7619 184.792 86.4913 182.762 85.5363L165.215 75.8676C164.857 60.3499 157.194 26.5212 129.405 15.3485C124.144 3.57368 99.4233 -1.82058 79.9872 2.45624M59.9335 13.558C64.5598 7.85567 71.6401 4.29299 79.9872 2.45624M59.9335 13.558C85.3587 2.45624 122.673 28.8843 125.824 67.2727C125.108 27.8815 107.919 7.89873 79.9872 2.45624" stroke="#DC7107" stroke-width="0.2"/>
<path d="M80.2487 2.43359C71.6543 3.29304 63.0598 10.1925 59.8369 13.5347C96.7214 1.35929 119.64 41.1072 125.728 64.7419C124.295 16.0401 99.5862 6.37131 80.2487 2.43359Z" fill="#CF6F00" stroke="#7C6044" stroke-width="0.2"/>
<path d="M13.5 106.5C5.5 106.9 1.83333 112.667 1 115.5C1.16667 149.667 1.5 219.8 1.5 227C1.5 234.2 8.5 237 12 237.5V249C12 249.8 12.6667 250 13 250H37C38 250 38.5 249.5 38.5 249V246.5H50V255.5C50 256.7 51.3333 257 52 257H80.5C81.7 257 82 256 82 255.5V245.5H138V255C137.6 256.2 138.833 256.833 139.5 257C150 257.167 171 257.4 171 257V246C182.2 246 185.667 238.333 186 234.5V116C183 101.5 170 106 166 106C111.5 116 107.5 114 55 101H34.5L13.5 106.5Z" fill="white" stroke="white"/>
<rect x="51.5" y="121" width="121" height="111" rx="8" fill="#1A1A1A"/>
<rect x="58.5" y="128" width="108" height="96" rx="4" fill="white"/>
<circle cx="80" cy="169.5" r="9.5" fill="#050000"/>
<rect x="76.5" y="173" width="8" height="27" rx="4" fill="#050000"/>
<circle cx="127.5" cy="176" r="27.5" fill="#1A1A1A" stroke="black"/>
<path d="M118.5 164.999L115 169.499L109.5 165.5C105.1 175.1 107.666 182.833 109.5 185.5L115 182L118.5 186.5L113 191C114.2 193.4 120.833 195.667 124 196.5V189H130.5V197C136.9 195.8 140.5 192.5 141.5 191L136 186.5L140 182L145.5 186.5C149.9 176.5 146.666 168.333 144.5 165.5L140 169.499L136 164.999L140 160.999C137.6 156.999 132.666 156.333 130.5 156.499V162.999H124V156.499C119.6 156.499 115.5 159.499 114 160.999L118.5 164.999Z" fill="white" stroke="black"/>
<path d="M227.398 150.773C224.822 150.773 222.353 150.435 219.992 149.761C217.631 149.055 215.729 148.151 214.288 147.047L216.818 141.435C218.198 142.416 219.823 143.229 221.694 143.873C223.595 144.486 225.512 144.793 227.444 144.793C228.916 144.793 230.097 144.655 230.986 144.379C231.906 144.072 232.581 143.658 233.01 143.137C233.439 142.615 233.654 142.017 233.654 141.343C233.654 140.484 233.317 139.809 232.642 139.319C231.967 138.797 231.078 138.383 229.974 138.077C228.87 137.739 227.643 137.433 226.294 137.157C224.975 136.85 223.641 136.482 222.292 136.053C220.973 135.623 219.762 135.071 218.658 134.397C217.554 133.722 216.649 132.833 215.944 131.729C215.269 130.625 214.932 129.214 214.932 127.497C214.932 125.657 215.423 123.985 216.404 122.483C217.416 120.949 218.919 119.738 220.912 118.849C222.936 117.929 225.466 117.469 228.502 117.469C230.526 117.469 232.519 117.714 234.482 118.205C236.445 118.665 238.177 119.37 239.68 120.321L237.38 125.979C235.877 125.12 234.375 124.491 232.872 124.093C231.369 123.663 229.897 123.449 228.456 123.449C227.015 123.449 225.834 123.617 224.914 123.955C223.994 124.292 223.335 124.737 222.936 125.289C222.537 125.81 222.338 126.423 222.338 127.129C222.338 127.957 222.675 128.631 223.35 129.153C224.025 129.643 224.914 130.042 226.018 130.349C227.122 130.655 228.333 130.962 229.652 131.269C231.001 131.575 232.335 131.928 233.654 132.327C235.003 132.725 236.23 133.262 237.334 133.937C238.438 134.611 239.327 135.501 240.002 136.605C240.707 137.709 241.06 139.104 241.06 140.791C241.06 142.6 240.554 144.256 239.542 145.759C238.53 147.261 237.012 148.473 234.988 149.393C232.995 150.313 230.465 150.773 227.398 150.773ZM257.928 150.589C255.107 150.589 252.623 150.037 250.476 148.933C248.36 147.829 246.719 146.326 245.554 144.425C244.389 142.493 243.806 140.3 243.806 137.847C243.806 135.363 244.373 133.17 245.508 131.269C246.673 129.337 248.253 127.834 250.246 126.761C252.239 125.657 254.493 125.105 257.008 125.105C259.431 125.105 261.608 125.626 263.54 126.669C265.503 127.681 267.051 129.153 268.186 131.085C269.321 132.986 269.888 135.271 269.888 137.939C269.888 138.215 269.873 138.537 269.842 138.905C269.811 139.242 269.781 139.564 269.75 139.871H249.648V135.685H265.978L263.218 136.927C263.218 135.639 262.957 134.519 262.436 133.569C261.915 132.618 261.194 131.882 260.274 131.361C259.354 130.809 258.281 130.533 257.054 130.533C255.827 130.533 254.739 130.809 253.788 131.361C252.868 131.882 252.147 132.633 251.626 133.615C251.105 134.565 250.844 135.7 250.844 137.019V138.123C250.844 139.472 251.135 140.668 251.718 141.711C252.331 142.723 253.175 143.505 254.248 144.057C255.352 144.578 256.64 144.839 258.112 144.839C259.431 144.839 260.581 144.639 261.562 144.241C262.574 143.842 263.494 143.244 264.322 142.447L268.14 146.587C267.005 147.875 265.579 148.871 263.862 149.577C262.145 150.251 260.167 150.589 257.928 150.589ZM286.626 150.589C283.958 150.589 281.581 150.052 279.496 148.979C277.41 147.875 275.77 146.357 274.574 144.425C273.408 142.493 272.826 140.3 272.826 137.847C272.826 135.363 273.408 133.17 274.574 131.269C275.77 129.337 277.41 127.834 279.496 126.761C281.581 125.657 283.958 125.105 286.626 125.105C289.232 125.105 291.502 125.657 293.434 126.761C295.366 127.834 296.792 129.383 297.712 131.407L292.146 134.397C291.502 133.231 290.689 132.373 289.708 131.821C288.757 131.269 287.714 130.993 286.58 130.993C285.353 130.993 284.249 131.269 283.268 131.821C282.286 132.373 281.504 133.155 280.922 134.167C280.37 135.179 280.094 136.405 280.094 137.847C280.094 139.288 280.37 140.515 280.922 141.527C281.504 142.539 282.286 143.321 283.268 143.873C284.249 144.425 285.353 144.701 286.58 144.701C287.714 144.701 288.757 144.44 289.708 143.919C290.689 143.367 291.502 142.493 292.146 141.297L297.712 144.333C296.792 146.326 295.366 147.875 293.434 148.979C291.502 150.052 289.232 150.589 286.626 150.589ZM312.285 150.589C310.231 150.589 308.391 150.19 306.765 149.393C305.171 148.595 303.929 147.384 303.039 145.759C302.15 144.103 301.705 142.002 301.705 139.457V125.473H308.881V138.399C308.881 140.453 309.311 141.971 310.169 142.953C311.059 143.903 312.301 144.379 313.895 144.379C314.999 144.379 315.981 144.149 316.839 143.689C317.698 143.198 318.373 142.462 318.863 141.481C319.354 140.469 319.599 139.211 319.599 137.709V125.473H326.775V150.221H319.967V143.413L321.209 145.391C320.381 147.108 319.155 148.411 317.529 149.301C315.935 150.159 314.187 150.589 312.285 150.589ZM333.423 150.221V125.473H340.277V132.465L339.311 130.441C340.047 128.693 341.228 127.374 342.853 126.485C344.479 125.565 346.457 125.105 348.787 125.105V131.729C348.481 131.698 348.205 131.683 347.959 131.683C347.714 131.652 347.453 131.637 347.177 131.637C345.215 131.637 343.62 132.204 342.393 133.339C341.197 134.443 340.599 136.175 340.599 138.537V150.221H333.423ZM365.157 150.589C362.335 150.589 359.851 150.037 357.705 148.933C355.589 147.829 353.948 146.326 352.783 144.425C351.617 142.493 351.035 140.3 351.035 137.847C351.035 135.363 351.602 133.17 352.737 131.269C353.902 129.337 355.481 127.834 357.475 126.761C359.468 125.657 361.722 125.105 364.237 125.105C366.659 125.105 368.837 125.626 370.769 126.669C372.731 127.681 374.28 129.153 375.415 131.085C376.549 132.986 377.117 135.271 377.117 137.939C377.117 138.215 377.101 138.537 377.071 138.905C377.04 139.242 377.009 139.564 376.979 139.871H356.877V135.685H373.206L370.447 136.927C370.447 135.639 370.186 134.519 369.665 133.569C369.143 132.618 368.423 131.882 367.503 131.361C366.583 130.809 365.509 130.533 364.283 130.533C363.056 130.533 361.967 130.809 361.017 131.361C360.097 131.882 359.376 132.633 358.855 133.615C358.333 134.565 358.073 135.7 358.073 137.019V138.123C358.073 139.472 358.364 140.668 358.947 141.711C359.56 142.723 360.403 143.505 361.477 144.057C362.581 144.578 363.869 144.839 365.341 144.839C366.659 144.839 367.809 144.639 368.791 144.241C369.803 143.842 370.723 143.244 371.551 142.447L375.369 146.587C374.234 147.875 372.808 148.871 371.091 149.577C369.373 150.251 367.395 150.589 365.157 150.589ZM391.195 150.221L405.547 118.021H412.907L427.305 150.221H419.485L407.709 121.793H410.653L398.831 150.221H391.195ZM398.371 143.321L400.349 137.663H416.909L418.933 143.321H398.371ZM441.876 150.589C439.208 150.589 436.831 150.052 434.746 148.979C432.66 147.875 431.02 146.357 429.824 144.425C428.658 142.493 428.076 140.3 428.076 137.847C428.076 135.363 428.658 133.17 429.824 131.269C431.02 129.337 432.66 127.834 434.746 126.761C436.831 125.657 439.208 125.105 441.876 125.105C444.482 125.105 446.752 125.657 448.684 126.761C450.616 127.834 452.042 129.383 452.962 131.407L447.396 134.397C446.752 133.231 445.939 132.373 444.958 131.821C444.007 131.269 442.964 130.993 441.83 130.993C440.603 130.993 439.499 131.269 438.518 131.821C437.536 132.373 436.754 133.155 436.172 134.167C435.62 135.179 435.344 136.405 435.344 137.847C435.344 139.288 435.62 140.515 436.172 141.527C436.754 142.539 437.536 143.321 438.518 143.873C439.499 144.425 440.603 144.701 441.83 144.701C442.964 144.701 444.007 144.44 444.958 143.919C445.939 143.367 446.752 142.493 447.396 141.297L452.962 144.333C452.042 146.326 450.616 147.875 448.684 148.979C446.752 150.052 444.482 150.589 441.876 150.589ZM468.555 150.589C465.917 150.589 463.571 150.037 461.517 148.933C459.493 147.829 457.883 146.326 456.687 144.425C455.521 142.493 454.939 140.3 454.939 137.847C454.939 135.363 455.521 133.17 456.687 131.269C457.883 129.337 459.493 127.834 461.517 126.761C463.571 125.657 465.917 125.105 468.555 125.105C471.161 125.105 473.492 125.657 475.547 126.761C477.601 127.834 479.211 129.321 480.377 131.223C481.542 133.124 482.125 135.332 482.125 137.847C482.125 140.3 481.542 142.493 480.377 144.425C479.211 146.326 477.601 147.829 475.547 148.933C473.492 150.037 471.161 150.589 468.555 150.589ZM468.555 144.701C469.751 144.701 470.824 144.425 471.775 143.873C472.725 143.321 473.477 142.539 474.029 141.527C474.581 140.484 474.857 139.257 474.857 137.847C474.857 136.405 474.581 135.179 474.029 134.167C473.477 133.155 472.725 132.373 471.775 131.821C470.824 131.269 469.751 130.993 468.555 130.993C467.359 130.993 466.285 131.269 465.335 131.821C464.384 132.373 463.617 133.155 463.035 134.167C462.483 135.179 462.207 136.405 462.207 137.847C462.207 139.257 462.483 140.484 463.035 141.527C463.617 142.539 464.384 143.321 465.335 143.873C466.285 144.425 467.359 144.701 468.555 144.701ZM518.615 125.105C520.578 125.105 522.311 125.503 523.813 126.301C525.347 127.067 526.543 128.263 527.401 129.889C528.291 131.483 528.735 133.538 528.735 136.053V150.221H521.559V137.157C521.559 135.163 521.145 133.691 520.317 132.741C519.489 131.79 518.324 131.315 516.821 131.315C515.779 131.315 514.843 131.56 514.015 132.051C513.187 132.511 512.543 133.216 512.083 134.167C511.623 135.117 511.393 136.329 511.393 137.801V150.221H504.217V137.157C504.217 135.163 503.803 133.691 502.975 132.741C502.178 131.79 501.028 131.315 499.525 131.315C498.483 131.315 497.547 131.56 496.719 132.051C495.891 132.511 495.247 133.216 494.787 134.167C494.327 135.117 494.097 136.329 494.097 137.801V150.221H486.921V125.473H493.775V132.235L492.487 130.257C493.346 128.57 494.557 127.297 496.121 126.439C497.716 125.549 499.525 125.105 501.549 125.105C503.819 125.105 505.797 125.687 507.483 126.853C509.201 127.987 510.335 129.735 510.887 132.097L508.357 131.407C509.185 129.475 510.504 127.941 512.313 126.807C514.153 125.672 516.254 125.105 518.615 125.105ZM549.795 150.589C547.71 150.589 545.885 150.129 544.321 149.209C542.757 148.289 541.531 146.893 540.641 145.023C539.783 143.121 539.353 140.729 539.353 137.847C539.353 134.933 539.767 132.541 540.595 130.671C541.423 128.8 542.619 127.405 544.183 126.485C545.747 125.565 547.618 125.105 549.795 125.105C552.126 125.105 554.211 125.641 556.051 126.715C557.922 127.757 559.394 129.229 560.467 131.131C561.571 133.032 562.123 135.271 562.123 137.847C562.123 140.453 561.571 142.707 560.467 144.609C559.394 146.51 557.922 147.982 556.051 149.025C554.211 150.067 552.126 150.589 549.795 150.589ZM535.167 159.145V125.473H542.021V130.533L541.883 137.893L542.343 145.207V159.145H535.167ZM548.553 144.701C549.749 144.701 550.807 144.425 551.727 143.873C552.678 143.321 553.429 142.539 553.981 141.527C554.564 140.484 554.855 139.257 554.855 137.847C554.855 136.405 554.564 135.179 553.981 134.167C553.429 133.155 552.678 132.373 551.727 131.821C550.807 131.269 549.749 130.993 548.553 130.993C547.357 130.993 546.284 131.269 545.333 131.821C544.383 132.373 543.631 133.155 543.079 134.167C542.527 135.179 542.251 136.405 542.251 137.847C542.251 139.257 542.527 140.484 543.079 141.527C543.631 142.539 544.383 143.321 545.333 143.873C546.284 144.425 547.357 144.701 548.553 144.701ZM577.047 150.589C574.134 150.589 571.865 149.853 570.239 148.381C568.614 146.878 567.801 144.655 567.801 141.711V119.999H574.977V141.619C574.977 142.661 575.253 143.474 575.805 144.057C576.357 144.609 577.109 144.885 578.059 144.885C579.194 144.885 580.16 144.578 580.957 143.965L582.889 149.025C582.153 149.546 581.264 149.945 580.221 150.221C579.209 150.466 578.151 150.589 577.047 150.589ZM563.983 131.545V126.025H581.141V131.545H563.983ZM598.436 150.589C595.614 150.589 593.13 150.037 590.984 148.933C588.868 147.829 587.227 146.326 586.062 144.425C584.896 142.493 584.314 140.3 584.314 137.847C584.314 135.363 584.881 133.17 586.016 131.269C587.181 129.337 588.76 127.834 590.754 126.761C592.747 125.657 595.001 125.105 597.516 125.105C599.938 125.105 602.116 125.626 604.048 126.669C606.01 127.681 607.559 129.153 608.694 131.085C609.828 132.986 610.396 135.271 610.396 137.939C610.396 138.215 610.38 138.537 610.35 138.905C610.319 139.242 610.288 139.564 610.258 139.871H590.156V135.685H606.486L603.726 136.927C603.726 135.639 603.465 134.519 602.944 133.569C602.422 132.618 601.702 131.882 600.782 131.361C599.862 130.809 598.788 130.533 597.562 130.533C596.335 130.533 595.246 130.809 594.296 131.361C593.376 131.882 592.655 132.633 592.134 133.615C591.612 134.565 591.352 135.7 591.352 137.019V138.123C591.352 139.472 591.643 140.668 592.226 141.711C592.839 142.723 593.682 143.505 594.756 144.057C595.86 144.578 597.148 144.839 598.62 144.839C599.938 144.839 601.088 144.639 602.07 144.241C603.082 143.842 604.002 143.244 604.83 142.447L608.648 146.587C607.513 147.875 606.087 148.871 604.37 149.577C602.652 150.251 600.674 150.589 598.436 150.589Z" fill="#DC7107"/>
<path d="M234.888 230.221V175.693H213.384V163.021H271.944V175.693H250.44V230.221H234.888ZM278.131 230.221V178.573H292.435V193.165L290.419 188.941C291.955 185.293 294.419 182.541 297.811 180.685C301.203 178.765 305.331 177.805 310.195 177.805V191.629C309.555 191.565 308.979 191.533 308.467 191.533C307.955 191.469 307.411 191.437 306.835 191.437C302.739 191.437 299.411 192.621 296.851 194.989C294.355 197.293 293.107 200.909 293.107 205.837V230.221H278.131ZM347.405 230.221V220.141L346.445 217.933V199.885C346.445 196.685 345.453 194.189 343.469 192.397C341.549 190.605 338.573 189.709 334.541 189.709C331.789 189.709 329.069 190.157 326.381 191.053C323.757 191.885 321.517 193.037 319.661 194.509L314.285 184.045C317.101 182.061 320.493 180.525 324.461 179.437C328.429 178.349 332.461 177.805 336.557 177.805C344.429 177.805 350.541 179.661 354.893 183.373C359.245 187.085 361.421 192.877 361.421 200.749V230.221H347.405ZM331.661 230.989C327.629 230.989 324.173 230.317 321.293 228.973C318.413 227.565 316.205 225.677 314.669 223.309C313.133 220.941 312.365 218.285 312.365 215.341C312.365 212.269 313.101 209.581 314.573 207.277C316.109 204.973 318.509 203.181 321.773 201.901C325.037 200.557 329.293 199.885 334.541 199.885H348.269V208.621H336.173C332.653 208.621 330.221 209.197 328.877 210.349C327.597 211.501 326.957 212.941 326.957 214.669C326.957 216.589 327.693 218.125 329.165 219.277C330.701 220.365 332.781 220.909 335.405 220.909C337.901 220.909 340.141 220.333 342.125 219.181C344.109 217.965 345.549 216.205 346.445 213.901L348.749 220.813C347.661 224.141 345.677 226.669 342.797 228.397C339.917 230.125 336.205 230.989 331.661 230.989ZM388.053 230.221L366.357 178.573H381.813L399.861 223.021H392.181L410.901 178.573H425.301L403.509 230.221H388.053ZM461.405 230.221V220.141L460.445 217.933V199.885C460.445 196.685 459.453 194.189 457.469 192.397C455.549 190.605 452.573 189.709 448.541 189.709C445.789 189.709 443.069 190.157 440.381 191.053C437.757 191.885 435.517 193.037 433.661 194.509L428.285 184.045C431.101 182.061 434.493 180.525 438.461 179.437C442.429 178.349 446.461 177.805 450.557 177.805C458.429 177.805 464.541 179.661 468.893 183.373C473.245 187.085 475.421 192.877 475.421 200.749V230.221H461.405ZM445.661 230.989C441.629 230.989 438.173 230.317 435.293 228.973C432.413 227.565 430.205 225.677 428.669 223.309C427.133 220.941 426.365 218.285 426.365 215.341C426.365 212.269 427.101 209.581 428.573 207.277C430.109 204.973 432.509 203.181 435.773 201.901C439.037 200.557 443.293 199.885 448.541 199.885H462.269V208.621H450.173C446.653 208.621 444.221 209.197 442.877 210.349C441.597 211.501 440.957 212.941 440.957 214.669C440.957 216.589 441.693 218.125 443.165 219.277C444.701 220.365 446.781 220.909 449.405 220.909C451.901 220.909 454.141 220.333 456.125 219.181C458.109 217.965 459.549 216.205 460.445 213.901L462.749 220.813C461.661 224.141 459.677 226.669 456.797 228.397C453.917 230.125 450.205 230.989 445.661 230.989ZM510.767 230.989C506.479 230.989 502.639 230.157 499.247 228.493C495.919 226.829 493.327 224.301 491.471 220.909C489.615 217.453 488.687 213.069 488.687 207.757V178.573H503.663V205.549C503.663 209.837 504.559 213.005 506.351 215.053C508.207 217.037 510.799 218.029 514.127 218.029C516.431 218.029 518.479 217.549 520.271 216.589C522.063 215.565 523.471 214.029 524.495 211.981C525.519 209.869 526.031 207.245 526.031 204.109V178.573H541.007V230.221H526.799V216.013L529.391 220.141C527.663 223.725 525.103 226.445 521.711 228.301C518.383 230.093 514.735 230.989 510.767 230.989ZM548.353 230.221L571.489 199.885L571.201 208.141L549.025 178.573H565.825L579.841 197.869L573.505 198.061L588.001 178.573H603.937L581.665 207.853V199.789L604.705 230.221H587.713L573.025 209.677L579.265 210.541L564.673 230.221H548.353Z" fill="white"/>
<rect x="213" y="243.221" width="399" height="14" fill="#F88900"/>
</svg>
