<svg width="649" height="258" viewBox="0 0 649 258" fill="none" xmlns="http://www.w3.org/2000/svg">
<path d="M14.4549 81.5972C13.5955 79.8783 18.8715 76.8225 21.617 75.5095C23.909 37.1214 48.3551 17.9749 59.9335 13.558C64.5598 7.85567 71.6401 4.29299 79.9872 2.45624C99.4233 -1.82058 124.144 3.57368 129.405 15.3485C157.194 26.5212 164.857 60.3499 165.215 75.8676L182.762 85.5363C184.792 86.4913 187.633 89.7619 182.762 95.205C176.675 102.009 124.101 108.216 113 107.5C104.119 106.927 68.2892 100.099 56.3525 96.9956C42.8642 94.9663 15.601 90.8362 14.4549 90.5498C13.0223 90.1917 15.5292 83.7458 14.4549 81.5972Z" fill="#F98C00"/>
<path d="M59.9335 13.558C48.3551 17.9749 23.909 37.1214 21.617 75.5095C18.8715 76.8225 13.5955 79.8783 14.4549 81.5972C15.5292 83.7458 13.0223 90.1916 14.4549 90.5498C15.601 90.8362 42.8642 94.9663 56.3525 96.9956C68.2892 100.099 104.119 106.927 113 107.5C124.101 108.216 176.675 102.009 182.762 95.205C187.633 89.7619 184.792 86.4913 182.762 85.5363L165.215 75.8676C164.857 60.3499 157.194 26.5212 129.405 15.3485C124.144 3.57368 99.4233 -1.82058 79.9872 2.45624M59.9335 13.558C64.5598 7.85567 71.6401 4.29299 79.9872 2.45624M59.9335 13.558C85.3587 2.45624 122.673 28.8843 125.824 67.2727C125.108 27.8815 107.919 7.89873 79.9872 2.45624" stroke="#DC7107" stroke-width="0.2"/>
<path d="M80.2487 2.43359C71.6543 3.29304 63.0598 10.1925 59.8369 13.5347C96.7214 1.35929 119.64 41.1072 125.728 64.7419C124.295 16.0401 99.5862 6.37131 80.2487 2.43359Z" fill="#CF6F00" stroke="#7C6044" stroke-width="0.2"/>
<path d="M13.5 106.5C5.5 106.9 1.83333 112.667 1 115.5C1.16667 149.667 1.5 219.8 1.5 227C1.5 234.2 8.5 237 12 237.5V249C12 249.8 12.6667 250 13 250H37C38 250 38.5 249.5 38.5 249V246.5H50V255.5C50 256.7 51.3333 257 52 257H80.5C81.7 257 82 256 82 255.5V245.5H138V255C137.6 256.2 138.833 256.833 139.5 257C150 257.167 171 257.4 171 257V246C182.2 246 185.667 238.333 186 234.5V116C183 101.5 170 106 166 106C111.5 116 107.5 114 55 101H34.5L13.5 106.5Z" fill="black" stroke="black"/>
<rect x="51.5" y="121" width="121" height="111" rx="8" fill="white"/>
<rect x="58.5" y="128" width="108" height="96" rx="4" fill="black"/>
<circle cx="80" cy="169.5" r="9.5" fill="white"/>
<rect x="76.5" y="173" width="8" height="27" rx="4" fill="white"/>
<circle cx="127.5" cy="176" r="27.5" fill="white" stroke="white"/>
<path d="M118.5 164.999L115 169.499L109.5 165.5C105.1 175.1 107.666 182.833 109.5 185.5L115 182L118.5 186.5L113 191C114.2 193.4 120.833 195.667 124 196.5V189H130.5V197C136.9 195.8 140.5 192.5 141.5 191L136 186.5L140 182L145.5 186.5C149.9 176.5 146.666 168.333 144.5 165.5L140 169.499L136 164.999L140 160.999C137.6 156.999 132.666 156.333 130.5 156.499V162.999H124V156.499C119.6 156.499 115.5 159.499 114 160.999L118.5 164.999Z" fill="black" stroke="white"/>
<path d="M227.398 150.773C222.292 150.773 217.14 149.255 214.288 147.047L216.818 141.435C219.532 143.413 223.58 144.793 227.444 144.793C231.86 144.793 233.654 143.321 233.654 141.343C233.654 135.317 214.932 139.457 214.932 127.497C214.932 122.023 219.348 117.469 228.502 117.469C232.55 117.469 236.69 118.435 239.68 120.321L237.38 125.979C234.39 124.277 231.308 123.449 228.456 123.449C224.04 123.449 222.338 125.105 222.338 127.129C222.338 133.063 241.06 128.969 241.06 140.791C241.06 146.173 236.598 150.773 227.398 150.773ZM269.888 137.939C269.888 138.491 269.796 139.273 269.75 139.871H251.028C251.718 142.953 254.34 144.839 258.112 144.839C260.734 144.839 262.62 144.057 264.322 142.447L268.14 146.587C265.84 149.209 262.39 150.589 257.928 150.589C249.372 150.589 243.806 145.207 243.806 137.847C243.806 130.441 249.464 125.105 257.008 125.105C264.276 125.105 269.888 129.981 269.888 137.939ZM257.054 130.533C253.788 130.533 251.442 132.511 250.936 135.685H263.126C262.62 132.557 260.274 130.533 257.054 130.533ZM286.626 150.589C278.576 150.589 272.826 145.299 272.826 137.847C272.826 130.395 278.576 125.105 286.626 125.105C291.824 125.105 295.918 127.359 297.712 131.407L292.146 134.397C290.812 132.051 288.834 130.993 286.58 130.993C282.946 130.993 280.094 133.523 280.094 137.847C280.094 142.171 282.946 144.701 286.58 144.701C288.834 144.701 290.812 143.689 292.146 141.297L297.712 144.333C295.918 148.289 291.824 150.589 286.626 150.589ZM319.599 125.473H326.775V150.221H319.967V147.277C318.081 149.439 315.321 150.589 312.285 150.589C306.075 150.589 301.705 147.093 301.705 139.457V125.473H308.881V138.399C308.881 142.539 310.721 144.379 313.895 144.379C317.207 144.379 319.599 142.263 319.599 137.709V125.473ZM340.277 128.739C342.025 126.347 344.969 125.105 348.787 125.105V131.729C348.189 131.683 347.729 131.637 347.177 131.637C343.221 131.637 340.599 133.799 340.599 138.537V150.221H333.423V125.473H340.277V128.739ZM377.072 137.939C377.072 138.491 376.98 139.273 376.934 139.871H358.212C358.902 142.953 361.524 144.839 365.296 144.839C367.918 144.839 369.804 144.057 371.506 142.447L375.324 146.587C373.024 149.209 369.574 150.589 365.112 150.589C356.556 150.589 350.99 145.207 350.99 137.847C350.99 130.441 356.648 125.105 364.192 125.105C371.46 125.105 377.072 129.981 377.072 137.939ZM364.238 130.533C360.972 130.533 358.626 132.511 358.12 135.685H370.31C369.804 132.557 367.458 130.533 364.238 130.533ZM419.44 150.221L416.588 143.321H401.638L398.786 150.221H391.15L405.502 118.021H412.862L427.26 150.221H419.44ZM404.03 137.663H414.242L409.136 125.335L404.03 137.663ZM441.831 150.589C433.781 150.589 428.031 145.299 428.031 137.847C428.031 130.395 433.781 125.105 441.831 125.105C447.029 125.105 451.123 127.359 452.917 131.407L447.351 134.397C446.017 132.051 444.039 130.993 441.785 130.993C438.151 130.993 435.299 133.523 435.299 137.847C435.299 142.171 438.151 144.701 441.785 144.701C444.039 144.701 446.017 143.689 447.351 141.297L452.917 144.333C451.123 148.289 447.029 150.589 441.831 150.589ZM468.51 150.589C460.644 150.589 454.894 145.299 454.894 137.847C454.894 130.395 460.644 125.105 468.51 125.105C476.376 125.105 482.08 130.395 482.08 137.847C482.08 145.299 476.376 150.589 468.51 150.589ZM468.51 144.701C472.098 144.701 474.812 142.125 474.812 137.847C474.812 133.569 472.098 130.993 468.51 130.993C464.922 130.993 462.162 133.569 462.162 137.847C462.162 142.125 464.922 144.701 468.51 144.701ZM518.57 125.105C524.458 125.105 528.69 128.509 528.69 136.053V150.221H521.514V137.157C521.514 133.155 519.72 131.315 516.822 131.315C513.602 131.315 511.348 133.385 511.348 137.801V150.221H504.172V137.157C504.172 133.155 502.47 131.315 499.48 131.315C496.306 131.315 494.052 133.385 494.052 137.801V150.221H486.876V125.473H493.73V128.325C495.57 126.209 498.33 125.105 501.504 125.105C504.954 125.105 507.898 126.439 509.646 129.153C511.624 126.623 514.844 125.105 518.57 125.105ZM549.751 125.105C556.697 125.105 562.079 130.073 562.079 137.847C562.079 145.621 556.697 150.589 549.751 150.589C546.669 150.589 544.139 149.623 542.299 147.599V159.145H535.123V125.473H541.977V128.325C543.771 126.163 546.439 125.105 549.751 125.105ZM548.509 144.701C552.097 144.701 554.811 142.125 554.811 137.847C554.811 133.569 552.097 130.993 548.509 130.993C544.921 130.993 542.207 133.569 542.207 137.847C542.207 142.125 544.921 144.701 548.509 144.701ZM580.912 143.965L582.844 149.025C581.372 150.083 579.21 150.589 577.002 150.589C571.16 150.589 567.756 147.599 567.756 141.711V131.545H563.938V126.025H567.756V119.999H574.932V126.025H581.096V131.545H574.932V141.619C574.932 143.735 576.082 144.885 578.014 144.885C579.072 144.885 580.13 144.563 580.912 143.965ZM610.351 137.939C610.351 138.491 610.259 139.273 610.213 139.871H591.491C592.181 142.953 594.803 144.839 598.575 144.839C601.197 144.839 603.083 144.057 604.785 142.447L608.603 146.587C606.303 149.209 602.853 150.589 598.391 150.589C589.835 150.589 584.269 145.207 584.269 137.847C584.269 130.441 589.927 125.105 597.471 125.105C604.739 125.105 610.351 129.981 610.351 137.939ZM597.517 130.533C594.251 130.533 591.905 132.511 591.399 135.685H603.589C603.083 132.557 600.737 130.533 597.517 130.533Z" fill="#DC7107"/>
<path d="M234.888 230.221V175.693H213.384V163.021H271.944V175.693H250.44V230.221H234.888ZM292.435 185.389C296.083 180.397 302.227 177.805 310.195 177.805V191.629C308.947 191.533 307.987 191.437 306.835 191.437C298.579 191.437 293.107 195.949 293.107 205.837V230.221H278.131V178.573H292.435V185.389ZM339.65 177.805C355.394 177.805 364.514 185.101 364.514 200.749V230.221H350.498V223.789C347.714 228.493 342.338 230.989 334.754 230.989C322.658 230.989 315.458 224.269 315.458 215.341C315.458 206.221 321.89 199.885 337.634 199.885H349.538C349.538 193.453 345.698 189.709 337.634 189.709C332.162 189.709 326.498 191.533 322.754 194.509L317.378 184.045C323.042 180.013 331.394 177.805 339.65 177.805ZM338.498 220.909C343.49 220.909 347.81 218.605 349.538 213.901V208.621H339.266C332.258 208.621 330.05 211.213 330.05 214.669C330.05 218.413 333.218 220.909 338.498 220.909ZM413.995 178.573H428.395L406.603 230.221H391.147L369.451 178.573H384.907L399.211 213.709L413.995 178.573ZM453.65 177.805C469.394 177.805 478.514 185.101 478.514 200.749V230.221H464.498V223.789C461.714 228.493 456.338 230.989 448.754 230.989C436.658 230.989 429.458 224.269 429.458 215.341C429.458 206.221 435.89 199.885 451.634 199.885H463.538C463.538 193.453 459.698 189.709 451.634 189.709C446.162 189.709 440.498 191.533 436.754 194.509L431.378 184.045C437.042 180.013 445.394 177.805 453.65 177.805ZM452.498 220.909C457.49 220.909 461.81 218.605 463.538 213.901V208.621H453.266C446.258 208.621 444.05 211.213 444.05 214.669C444.05 218.413 447.218 220.909 452.498 220.909ZM529.124 178.573H544.1V230.221H529.892V224.077C525.956 228.589 520.196 230.989 513.86 230.989C500.9 230.989 491.78 223.693 491.78 207.757V178.573H506.756V205.549C506.756 214.189 510.596 218.029 517.22 218.029C524.132 218.029 529.124 213.613 529.124 204.109V178.573ZM607.799 230.221H590.807L579.479 214.381L567.767 230.221H551.447L571.319 204.205L552.119 178.573H568.919L579.863 193.645L591.095 178.573H607.031L587.831 203.821L607.799 230.221Z" fill="black"/>
<rect x="213" y="243.221" width="399" height="14" fill="#F88900"/>
</svg>
